<?xml version="1.0" standalone="no"?>
<!DOCTYPE svg PUBLIC "-//W3C//DTD SVG 20010904//EN"
 "http://www.w3.org/TR/2001/REC-SVG-20010904/DTD/svg10.dtd">
<svg version="1.0" xmlns="http://www.w3.org/2000/svg"
 width="347.000000pt" height="347.000000pt" viewBox="0 0 347.000000 347.000000"
 preserveAspectRatio="xMidYMid meet">
<metadata>
Created by potrace 1.11, written by Peter Selinger 2001-2013
</metadata>
<g transform="translate(0.000000,347.000000) scale(0.100000,-0.100000)"
fill="#000000" stroke="none">
<path d="M1555 3193 c-49 -19 -84 -41 -116 -73 -85 -85 -146 -254 -136 -379 4
-54 2 -66 -15 -83 -18 -18 -20 -28 -14 -90 8 -80 22 -124 46 -148 10 -10 21
-35 25 -56 10 -55 53 -139 96 -188 33 -37 39 -52 48 -120 13 -94 13 -86 0 -86
-7 0 -30 -9 -53 -19 -23 -11 -53 -22 -67 -25 -14 -3 -43 -19 -64 -36 -21 -16
-43 -30 -50 -30 -11 0 -65 -51 -65 -62 0 -7 -50 -62 -110 -123 -39 -40 -62
-101 -59 -157 1 -13 -1 -35 -5 -49 -5 -17 -3 -29 4 -34 8 -5 8 -10 0 -20 -7
-8 -9 -23 -5 -34 5 -17 12 -19 45 -11 3 0 -3 7 -14 15 -10 8 -15 19 -10 26 4
6 7 55 8 107 l1 94 45 39 c68 59 119 47 121 -27 0 -21 5 -48 10 -59 6 -14 8
-4 6 37 -3 56 -3 56 20 47 14 -5 42 -9 64 -9 29 0 56 -10 96 -36 31 -19 84
-44 118 -55 l63 -19 6 -58 c3 -31 8 -113 11 -182 3 -69 8 -138 11 -153 l6 -28
76 4 77 5 6 209 c3 114 6 209 7 210 1 1 28 9 59 18 31 9 83 30 115 46 37 19
73 29 101 29 30 0 64 10 107 32 l63 33 29 -35 c16 -19 36 -44 43 -55 14 -21
23 -164 12 -182 -4 -6 -3 -13 1 -18 7 -7 8 -13 11 -79 1 -52 17 -35 24 26 3
30 0 49 -7 51 -8 3 -7 8 2 19 10 13 9 18 -3 28 -11 9 -13 25 -9 65 5 39 2 61
-11 88 -9 21 -21 37 -26 37 -5 0 -18 19 -30 42 -28 56 -155 194 -196 213 -17
8 -48 15 -68 15 -22 0 -47 8 -62 20 -15 12 -41 20 -63 20 l-37 0 -6 78 c-6 66
-4 79 11 92 28 23 112 130 112 141 0 28 64 168 79 172 45 12 95 205 59 231
-11 8 -16 42 -21 136 -7 168 -29 233 -106 311 -72 72 -141 100 -261 105 -74 4
-94 0 -155 -23z m210 3 c91 -17 142 -39 184 -79 75 -72 105 -151 115 -303 8
-111 -4 -199 -44 -329 -72 -237 -122 -320 -224 -376 -54 -29 -64 -31 -130 -27
-120 8 -205 65 -265 178 -45 85 -70 213 -77 405 -8 182 0 235 48 332 46 93
122 160 223 195 61 21 81 22 170 4z m332 -601 c-6 -56 -52 -159 -67 -150 -9 5
13 69 32 92 6 7 7 20 4 29 -3 9 -1 34 4 55 16 57 34 39 27 -26z m-790 2 c-3
-29 -2 -59 3 -67 12 -23 20 -90 10 -90 -15 0 -43 150 -34 187 12 45 27 24 21
-30z m355 -534 c40 -4 66 0 106 16 l52 21 0 -39 c0 -21 3 -59 6 -85 l7 -46 38
6 c35 6 42 3 74 -29 19 -19 36 -46 37 -59 5 -88 31 -112 104 -99 21 4 48 14
60 21 19 12 25 10 58 -16 37 -30 47 -54 22 -54 -7 0 -33 -11 -57 -24 -62 -34
-105 -40 -159 -21 -78 28 -118 81 -144 196 -8 33 -18 64 -22 68 -11 10 6 -68
27 -129 18 -52 18 -56 2 -68 -58 -42 -242 -50 -334 -14 l-57 23 14 47 c16 52
19 160 8 270 l-7 72 57 -26 c31 -14 80 -28 108 -31z m-162 -170 c0 -109 -31
-174 -103 -220 -35 -22 -48 -25 -93 -20 -43 4 -103 28 -163 65 -3 1 6 14 20
28 26 28 29 28 122 -5 61 -21 80 -19 107 15 8 9 15 28 16 43 0 14 2 45 2 69 2
49 29 82 67 82 24 0 25 -3 25 -57z m-110 6 c17 -30 3 -79 -22 -79 -11 0 -36
-16 -54 -35 -36 -39 -50 -38 -87 3 -18 20 -18 21 2 41 12 12 29 21 40 21 10 0
25 7 32 17 11 13 68 53 76 53 1 0 7 -9 13 -21z m706 -34 c49 -37 60 -62 38
-86 -22 -25 -54 -25 -54 -1 0 24 -28 49 -60 54 -20 2 -26 9 -28 37 -3 34 -3
34 33 28 20 -3 52 -18 71 -32z m-61 -55 c-3 -5 -11 -10 -16 -10 -6 0 -7 5 -4
10 3 6 11 10 16 10 6 0 7 -4 4 -10z m-665 -20 c0 -5 -10 -10 -22 -10 -19 0
-20 2 -8 10 19 13 30 13 30 0z m146 -92 c43 -20 65 -23 174 -23 107 0 132 3
171 21 l47 22 21 -29 c12 -16 33 -32 46 -35 14 -3 25 -10 25 -14 0 -11 -129
-67 -171 -74 -63 -11 -64 -17 -63 -238 l2 -198 -68 0 -68 0 -5 53 c-4 28 -9
102 -12 162 -10 203 -6 190 -83 216 -54 18 -100 41 -151 76 -3 2 78 80 85 83
1 0 23 -10 50 -22z"/>
<path d="M1465 2720 c-42 -6 -35 -7 44 -8 52 -1 92 0 90 2 -10 8 -88 12 -134
6z"/>
<path d="M1755 2710 c-26 -11 36 -11 115 0 l55 7 -75 1 c-41 0 -84 -3 -95 -8z"/>
<path d="M1426 2674 c-24 -24 3 -70 50 -83 80 -22 172 61 98 89 -41 16 -130
12 -148 -6z m148 -7 c54 -40 -66 -91 -122 -51 -24 17 -29 49 -9 57 25 11 114
7 131 -6z"/>
<path d="M1495 2640 c3 -5 8 -10 11 -10 2 0 4 5 4 10 0 6 -5 10 -11 10 -5 0
-7 -4 -4 -10z"/>
<path d="M1758 2669 c-30 -17 -22 -57 15 -79 40 -25 64 -25 104 -1 36 22 50
55 33 76 -15 18 -125 20 -152 4z m140 -25 c7 -46 -66 -74 -116 -44 -61 37 -32
71 58 67 47 -2 55 -5 58 -23z"/>
<path d="M1637 2514 c-3 -38 -2 -73 1 -79 10 -14 21 117 12 134 -4 7 -10 -17
-13 -55z"/>
<path d="M1620 2320 c0 -5 23 -10 50 -10 28 0 50 5 50 10 0 6 -22 10 -50 10
-27 0 -50 -4 -50 -10z"/>
<path d="M1633 1624 c-14 -22 -15 -33 -6 -67 7 -26 8 -49 2 -65 -7 -18 -5 -31
6 -49 12 -17 18 -60 22 -149 3 -69 9 -126 12 -128 3 -2 18 -2 34 1 l27 5 0
123 c0 90 4 130 16 153 12 24 13 36 4 52 -8 16 -9 30 -1 52 23 66 4 98 -59 98
-32 0 -43 -5 -57 -26z m96 3 c15 -19 3 -28 -20 -14 -15 9 -24 9 -40 -1 -25
-16 -37 -8 -19 13 15 19 64 20 79 2z m-26 -32 c8 -18 -11 -31 -25 -17 -11 11
-3 32 12 32 4 0 10 -7 13 -15z m-9 -35 c9 0 19 7 22 15 13 33 21 11 20 -57 -1
-70 -2 -73 -29 -82 -48 -17 -62 0 -63 83 -2 67 -1 71 15 57 10 -9 25 -16 35
-16z m11 -150 c3 -5 -3 -10 -14 -10 -12 0 -21 5 -21 10 0 6 6 10 14 10 8 0 18
-4 21 -10z m5 -35 c0 -8 -9 -15 -20 -15 -11 0 -20 7 -20 15 0 8 9 15 20 15 11
0 20 -7 20 -15z m8 -43 c3 -9 -3 -13 -19 -10 -12 1 -24 9 -27 16 -3 9 3 13 19
10 12 -1 24 -9 27 -16z m-1 -37 c3 -9 3 -18 0 -21 -10 -10 -47 7 -47 22 0 19
39 18 47 -1z m1 -52 c2 -8 -6 -13 -22 -13 -17 0 -26 5 -26 16 0 19 41 16 48
-3z m-1 -47 c-5 -17 -47 -20 -47 -3 0 20 9 26 31 20 11 -3 18 -11 16 -17z"/>
<path d="M2151 1590 c0 -36 2 -41 10 -27 7 12 7 27 0 45 -9 25 -9 24 -10 -18z"/>
<path d="M2150 1399 c0 -16 4 -28 9 -25 8 5 3 56 -5 56 -2 0 -4 -14 -4 -31z"/>
<path d="M1430 549 c-65 -26 -100 -91 -100 -186 0 -119 63 -193 164 -193 73 0
115 26 149 90 54 105 21 237 -74 285 -32 17 -102 19 -139 4z m158 -49 c92 -56
78 -201 -26 -270 -40 -27 -54 -31 -95 -27 -79 7 -129 77 -113 160 8 44 61 124
95 142 38 21 100 18 139 -5z"/>
<path d="M1918 533 c-14 -16 -45 -55 -69 -87 l-44 -60 -5 76 c-5 79 -11 95
-29 83 -12 -7 -16 -302 -5 -343 12 -42 34 -5 34 55 0 52 1 54 23 48 32 -10 82
-50 107 -86 25 -35 63 -37 68 -4 1 15 -17 33 -78 73 -44 29 -80 58 -80 64 0
15 44 74 98 130 38 40 43 49 32 63 -17 21 -22 19 -52 -12z"/>
</g>
</svg>
